<?xml version="1.0" encoding="utf-8"?>
<!-- Generator: Adobe Illustrator 16.0.0, SVG Export Plug-In . SVG Version: 6.00 Build 0)  -->
<!DOCTYPE svg PUBLIC "-//W3C//DTD SVG 1.1//EN" "http://www.w3.org/Graphics/SVG/1.1/DTD/svg11.dtd">
<svg version="1.1" id="Capa_1" xmlns="http://www.w3.org/2000/svg" xmlns:xlink="http://www.w3.org/1999/xlink" x="0px" y="0px"
	 width="23.955px" height="37.75px" viewBox="0 0 23.955 37.75" enable-background="new 0 0 23.955 37.75" xml:space="preserve">
<path class="arrow-1" fill="#FFFFFF" d="M20.631,16.241c-0.296-0.078-0.52,0.045-0.723,0.25c-2.372,2.399-4.745,4.796-7.115,7.193
	c-0.048,0.049-0.099,0.094-0.179,0.169v-0.266c0-6.409,0-12.818-0.001-19.227c0-0.112-0.004-0.226-0.024-0.335
	c-0.054-0.296-0.287-0.513-0.558-0.53c-0.308-0.019-0.555,0.151-0.642,0.465c-0.035,0.128-0.039,0.269-0.039,0.403
	c-0.002,6.403-0.002,12.806-0.002,19.209v0.221c-0.023,0.014-0.047,0.028-0.07,0.043c-0.038-0.061-0.067-0.128-0.116-0.177
	c-2.354-2.382-4.71-4.764-7.066-7.145c-0.045-0.046-0.09-0.093-0.138-0.136c-0.392-0.353-0.994-0.177-1.139,0.333
	c-0.088,0.312,0.04,0.547,0.252,0.763c2.932,2.961,5.864,5.925,8.794,8.886c0.042,0.042,0.083,0.081,0.139,0.135
	c0.051-0.049,0.089-0.085,0.127-0.122c2.924-2.962,5.846-5.925,8.768-8.887c0.033-0.034,0.067-0.067,0.098-0.104
	C21.332,16.975,21.14,16.374,20.631,16.241z"/>
<path class="arrow-2" fill="#FFFFFF" d="M20.631,16.241c-0.296-0.078-0.52,0.045-0.723,0.25c-2.372,2.399-4.745,4.796-7.115,7.193
	c-0.048,0.049-0.099,0.094-0.179,0.169v-0.266c0-6.409,0-12.818-0.001-19.227c0-0.112-0.004-0.226-0.024-0.335
	c-0.054-0.296-0.287-0.513-0.558-0.53c-0.308-0.019-0.555,0.151-0.642,0.465c-0.035,0.128-0.039,0.269-0.039,0.403
	c-0.002,6.403-0.002,12.806-0.002,19.209v0.221c-0.023,0.014-0.047,0.028-0.07,0.043c-0.038-0.061-0.067-0.128-0.116-0.177
	c-2.354-2.382-4.71-4.764-7.066-7.145c-0.045-0.046-0.09-0.093-0.138-0.136c-0.392-0.353-0.994-0.177-1.139,0.333
	c-0.088,0.312,0.04,0.547,0.252,0.763c2.932,2.961,5.864,5.925,8.794,8.886c0.042,0.042,0.083,0.081,0.139,0.135
	c0.051-0.049,0.089-0.085,0.127-0.122c2.924-2.962,5.846-5.925,8.768-8.887c0.033-0.034,0.067-0.067,0.098-0.104
	C21.332,16.975,21.14,16.374,20.631,16.241z"/>
</svg>
