<?xml version="1.0" encoding="utf-8"?>
<!-- Generator: Adobe Illustrator 16.0.0, SVG Export Plug-In . SVG Version: 6.00 Build 0)  -->
<!DOCTYPE svg PUBLIC "-//W3C//DTD SVG 1.1//EN" "http://www.w3.org/Graphics/SVG/1.1/DTD/svg11.dtd">
<svg version="1.1" id="Capa_1" xmlns="http://www.w3.org/2000/svg" xmlns:xlink="http://www.w3.org/1999/xlink" x="0px" y="0px"
	 width="50px" height="50px" viewBox="0 0 50 50" enable-background="new 0 0 50 50" xml:space="preserve">
<path fill="#FFFFFF" d="M21.981,13.598c-0.047,0.04-0.089,0.082-0.132,0.123c-3.744,3.694-7.49,7.388-11.234,11.085
	c-0.047,0.048-0.092,0.096-0.154,0.161c0.067,0.07,0.117,0.122,0.171,0.175c3.743,3.705,7.489,7.411,11.232,11.117
	c0.274,0.27,0.57,0.43,0.966,0.319c0.645-0.184,0.866-0.943,0.421-1.439c-0.055-0.061-0.113-0.118-0.172-0.176
	c-3.01-2.978-6.022-5.956-9.033-8.932c-0.062-0.062-0.147-0.099-0.224-0.146c0.02-0.029,0.037-0.06,0.055-0.089h0.278
	c8.096,0,16.19,0,24.286-0.002c0.168,0,0.347-0.005,0.509-0.049c0.397-0.11,0.612-0.422,0.587-0.812
	c-0.021-0.342-0.295-0.637-0.669-0.705c-0.138-0.025-0.282-0.03-0.424-0.03c-8.103-0.002-16.204-0.002-24.308-0.002H13.8
	c0.097-0.101,0.153-0.166,0.215-0.226c3.03-2.996,6.06-5.997,9.093-8.995c0.26-0.256,0.415-0.54,0.316-0.914
	C23.256,13.417,22.496,13.174,21.981,13.598z"/>
<path fill="#FFFFFF" d="M21.981,13.598c-0.047,0.04-0.089,0.082-0.132,0.123c-3.744,3.694-7.49,7.388-11.234,11.085
	c-0.047,0.048-0.092,0.096-0.154,0.161c0.067,0.07,0.117,0.122,0.171,0.175c3.743,3.705,7.489,7.411,11.232,11.117
	c0.274,0.27,0.57,0.43,0.966,0.319c0.645-0.184,0.866-0.943,0.421-1.439c-0.055-0.061-0.113-0.118-0.172-0.176
	c-3.01-2.978-6.022-5.956-9.033-8.932c-0.062-0.062-0.147-0.099-0.224-0.146c0.02-0.029,0.037-0.06,0.055-0.089h0.278
	c8.096,0,16.19,0,24.286-0.002c0.168,0,0.347-0.005,0.509-0.049c0.397-0.11,0.612-0.422,0.587-0.812
	c-0.021-0.342-0.295-0.637-0.669-0.705c-0.138-0.025-0.282-0.03-0.424-0.03c-8.103-0.002-16.204-0.002-24.308-0.002H13.8
	c0.097-0.101,0.153-0.166,0.215-0.226c3.03-2.996,6.06-5.997,9.093-8.995c0.26-0.256,0.415-0.54,0.316-0.914
	C23.256,13.417,22.496,13.174,21.981,13.598z"/>
</svg>
