<?xml version="1.0" encoding="utf-8"?>
<!-- Generator: Adobe Illustrator 16.0.0, SVG Export Plug-In . SVG Version: 6.00 Build 0)  -->
<!DOCTYPE svg PUBLIC "-//W3C//DTD SVG 1.1//EN" "http://www.w3.org/Graphics/SVG/1.1/DTD/svg11.dtd">
<svg version="1.1" id="Capa_1" xmlns="http://www.w3.org/2000/svg" xmlns:xlink="http://www.w3.org/1999/xlink" x="0px" y="0px"
	 width="63px" height="62.125px" viewBox="0 0 63 62.125" enable-background="new 0 0 63 62.125" xml:space="preserve">
<path fill="none" stroke="#FFFFFF" stroke-width="2" stroke-miterlimit="10" d="M60.75,0c0,0,0,23.232,0,30.713
	c0,16.443-13.285,29.771-29.725,29.771c-16.44,0-29.774-13.328-29.774-29.771C1.25,14.273,14.584,1,31.025,1
	C39.986,1,60.75,1,60.75,1"/>
<path id="XMLID_6_" fill="none" stroke="#FFFFFF" stroke-width="2" stroke-miterlimit="10" d="M30.358,43.271
	c-6.832,0-12.374-5.541-12.374-12.375c0-6.835,5.542-12.376,12.374-12.376"/>
<path fill="none" stroke="#FFFFFF" stroke-width="2" stroke-miterlimit="10" d="M22.933,30.802h12.144"/>
<path id="XMLID_1_" fill="none" stroke="#FFFFFF" stroke-width="2" stroke-miterlimit="10" d="M33.985,43.34
	c6.832,0,12.374-5.541,12.374-12.375c0-6.835-5.542-12.376-12.374-12.376"/>
<path fill="none" stroke="#FFFFFF" stroke-width="2" stroke-miterlimit="10" d="M34.586,18v12.733"/>
<path fill="none" stroke="#FFFFFF" stroke-width="2" stroke-miterlimit="10" d="M34.586,30.733v12.733"/>
</svg>
