<?xml version="1.0" encoding="utf-8"?>
<!-- Generator: Adobe Illustrator 16.0.0, SVG Export Plug-In . SVG Version: 6.00 Build 0)  -->
<!DOCTYPE svg PUBLIC "-//W3C//DTD SVG 1.1//EN" "http://www.w3.org/Graphics/SVG/1.1/DTD/svg11.dtd">
<svg version="1.1" id="Capa_1" xmlns="http://www.w3.org/2000/svg" xmlns:xlink="http://www.w3.org/1999/xlink" x="0px" y="0px"
	 width="50px" height="50px" viewBox="0 0 50 50" enable-background="new 0 0 50 50" xml:space="preserve">
<path fill="#FFFFFF" d="M26.576,14.061c-0.099,0.374,0.057,0.658,0.316,0.914c3.033,2.999,6.063,5.999,9.093,8.995
	c0.062,0.061,0.118,0.125,0.215,0.226h-0.337c-8.104,0-16.205,0-24.308,0.002c-0.142,0-0.286,0.005-0.424,0.03
	c-0.374,0.068-0.648,0.363-0.669,0.705c-0.024,0.39,0.19,0.702,0.587,0.812c0.162,0.044,0.34,0.049,0.509,0.049
	c8.095,0.002,16.19,0.002,24.286,0.002h0.278c0.018,0.029,0.035,0.06,0.055,0.089c-0.076,0.047-0.162,0.084-0.224,0.146
	c-3.011,2.976-6.023,5.954-9.033,8.932c-0.059,0.058-0.117,0.115-0.172,0.176c-0.445,0.496-0.224,1.256,0.421,1.439
	c0.396,0.11,0.691-0.05,0.966-0.319c3.743-3.706,7.489-7.412,11.232-11.117c0.054-0.053,0.104-0.105,0.171-0.175
	c-0.063-0.065-0.107-0.112-0.154-0.161c-3.744-3.697-7.49-7.391-11.234-11.085c-0.043-0.042-0.085-0.083-0.132-0.123
	C27.504,13.174,26.744,13.417,26.576,14.061z"/>
<path fill="#FFFFFF" d="M26.576,14.061c-0.099,0.374,0.057,0.658,0.316,0.914c3.033,2.999,6.063,5.999,9.093,8.995
	c0.062,0.061,0.118,0.125,0.215,0.226h-0.337c-8.104,0-16.205,0-24.308,0.002c-0.142,0-0.286,0.005-0.424,0.03
	c-0.374,0.068-0.648,0.363-0.669,0.705c-0.024,0.39,0.19,0.702,0.587,0.812c0.162,0.044,0.34,0.049,0.509,0.049
	c8.095,0.002,16.19,0.002,24.286,0.002h0.278c0.018,0.029,0.035,0.06,0.055,0.089c-0.076,0.047-0.162,0.084-0.224,0.146
	c-3.011,2.976-6.023,5.954-9.033,8.932c-0.059,0.058-0.117,0.115-0.172,0.176c-0.445,0.496-0.224,1.256,0.421,1.439
	c0.396,0.11,0.691-0.05,0.966-0.319c3.743-3.706,7.489-7.412,11.232-11.117c0.054-0.053,0.104-0.105,0.171-0.175
	c-0.063-0.065-0.107-0.112-0.154-0.161c-3.744-3.697-7.49-7.391-11.234-11.085c-0.043-0.042-0.085-0.083-0.132-0.123
	C27.504,13.174,26.744,13.417,26.576,14.061z"/>
</svg>
